<svg xmlns="http://www.w3.org/2000/svg" version="1.1" xmlns:xlink="http://www.w3.org/1999/xlink" viewBox="0 0 200 200"><rect width="200" height="200" fill="url('#gradient')"></rect><defs><linearGradient id="gradient" gradientTransform="rotate(45 0.5 0.5)"><stop offset="0%" stop-color="#806ad9"></stop><stop offset="100%" stop-color="#99b8a5"></stop></linearGradient></defs><g><g fill="#2c2c35" transform="matrix(1.6482160422069212,0,0,1.6482160422069212,8.231861175359128,108.93325287321647)" stroke="#9e837a" stroke-width="0.2"><path d="M8.87 0L6.36-5.02L4.50-5.02L4.50 0L1.07 0L1.07-14.22L6.67-14.22Q9.20-14.22 10.63-13.10Q12.05-11.97 12.05-9.92L12.05-9.92Q12.05-8.44 11.45-7.46Q10.85-6.48 9.57-5.88L9.57-5.88L12.54-0.15L12.54 0L8.87 0ZM4.50-11.57L4.50-7.67L6.67-7.67Q7.65-7.67 8.14-8.18Q8.63-8.69 8.63-9.61Q8.63-10.53 8.13-11.05Q7.64-11.57 6.67-11.57L6.67-11.57L4.50-11.57ZM13.56-4.82L13.55-5.38Q13.55-6.96 14.17-8.20Q14.79-9.43 15.94-10.10Q17.09-10.76 18.64-10.76L18.64-10.76Q21.02-10.76 22.38-9.29Q23.75-7.82 23.75-5.29L23.75-5.29L23.75-5.18Q23.75-2.71 22.38-1.25Q21.01 0.20 18.66 0.20L18.66 0.20Q16.41 0.20 15.04-1.16Q13.67-2.51 13.56-4.82L13.56-4.82ZM16.86-5.77L16.85-5.18Q16.85-3.71 17.30-3.03Q17.76-2.34 18.66-2.34L18.66-2.34Q20.42-2.34 20.46-5.05L20.46-5.05L20.46-5.38Q20.46-8.22 18.64-8.22L18.64-8.22Q16.99-8.22 16.86-5.77L16.86-5.77ZM24.79-5.36L24.79-5.36Q24.79-7.87 25.87-9.32Q26.95-10.76 28.90-10.76L28.90-10.76Q30.31-10.76 31.28-9.65L31.28-9.65L31.28-15L34.58-15L34.58 0L31.62 0L31.46-1.13Q30.44 0.20 28.88 0.20L28.88 0.20Q26.99 0.20 25.89-1.25Q24.79-2.70 24.79-5.36ZM28.09-5.76L28.08-5.16Q28.08-2.34 29.72-2.34L29.72-2.34Q30.81-2.34 31.28-3.26L31.28-3.26L31.28-7.29Q30.83-8.22 29.74-8.22L29.74-8.22Q28.21-8.22 28.09-5.76L28.09-5.76ZM42.90-10.64L42.84-7.59L41.76-7.67Q40.21-7.67 39.77-6.69L39.77-6.69L39.77 0L36.47 0L36.47-10.57L39.56-10.57L39.67-9.21Q40.50-10.76 41.98-10.76L41.98-10.76Q42.51-10.76 42.90-10.64L42.90-10.64ZM47.50-10.57L47.50 0L44.20 0L44.20-10.57L47.50-10.57ZM44.00-13.29L44.00-13.29Q44.00-13.99 44.51-14.44Q45.02-14.89 45.83-14.89Q46.64-14.89 47.15-14.44Q47.66-13.99 47.66-13.29Q47.66-12.59 47.15-12.14Q46.64-11.69 45.83-11.69Q45.02-11.69 44.51-12.14Q44.00-12.59 44.00-13.29ZM49.14-5.24L49.14-5.36Q49.14-6.96 49.67-8.19Q50.20-9.42 51.18-10.09Q52.17-10.76 53.48-10.76L53.48-10.76Q55.13-10.76 56.05-9.65L56.05-9.65L56.17-10.57L59.16-10.57L59.16-0.40Q59.16 1.00 58.51 2.03Q57.86 3.06 56.63 3.61Q55.40 4.16 53.78 4.16L53.78 4.16Q52.62 4.16 51.53 3.72Q50.44 3.28 49.86 2.58L49.86 2.58L51.24 0.64Q52.16 1.73 53.66 1.73L53.66 1.73Q55.85 1.73 55.85-0.52L55.85-0.52L55.85-0.85Q54.90 0.20 53.46 0.20L53.46 0.20Q51.52 0.20 50.33-1.28Q49.14-2.76 49.14-5.24L49.14-5.24ZM52.44-5.16L52.44-5.16Q52.44-3.86 52.93-3.10Q53.42-2.34 54.30-2.34L54.30-2.34Q55.36-2.34 55.85-3.06L55.85-3.06L55.85-7.50Q55.37-8.22 54.32-8.22L54.32-8.22Q53.44-8.22 52.94-7.44Q52.44-6.65 52.44-5.16ZM60.63-4.82L60.62-5.38Q60.62-6.96 61.23-8.20Q61.85-9.43 63.00-10.10Q64.15-10.76 65.70-10.76L65.70-10.76Q68.08-10.76 69.44-9.29Q70.81-7.82 70.81-5.29L70.81-5.29L70.81-5.18Q70.81-2.71 69.44-1.25Q68.07 0.20 65.72 0.20L65.72 0.20Q63.47 0.20 62.10-1.16Q60.73-2.51 60.63-4.82L60.63-4.82ZM63.92-5.77L63.91-5.18Q63.91-3.71 64.37-3.03Q64.82-2.34 65.72-2.34L65.72-2.34Q67.48-2.34 67.52-5.05L67.52-5.05L67.52-5.38Q67.52-8.22 65.70-8.22L65.70-8.22Q64.05-8.22 63.92-5.77L63.92-5.77ZM82.07 0L77.39 0L77.39-14.22L81.97-14.22Q83.86-14.22 85.36-13.36Q86.87-12.51 87.71-10.95Q88.55-9.39 88.56-7.46L88.56-7.46L88.56-6.81Q88.56-4.85 87.74-3.31Q86.91-1.76 85.42-0.88Q83.92-0.01 82.07 0L82.07 0ZM81.97-11.57L80.82-11.57L80.82-2.64L82.01-2.64Q83.49-2.64 84.28-3.69Q85.07-4.74 85.07-6.81L85.07-6.81L85.07-7.42Q85.07-9.48 84.28-10.53Q83.49-11.57 81.97-11.57L81.97-11.57ZM95.28 0.20L95.28 0.20Q92.85 0.20 91.35-1.25Q89.84-2.71 89.84-5.03L89.84-5.03L89.84-5.30Q89.84-6.92 90.44-8.16Q91.04-9.40 92.20-10.08Q93.35-10.76 94.93-10.76L94.93-10.76Q97.16-10.76 98.45-9.38Q99.74-8.00 99.74-5.53L99.74-5.53L99.74-4.25L93.19-4.25Q93.37-3.36 93.96-2.85Q94.56-2.34 95.51-2.34L95.51-2.34Q97.07-2.34 97.95-3.44L97.95-3.44L99.45-1.66Q98.84-0.81 97.71-0.31Q96.58 0.20 95.28 0.20ZM94.91-8.22L94.91-8.22Q93.47-8.22 93.19-6.31L93.19-6.31L96.51-6.31L96.51-6.56Q96.53-7.35 96.11-7.79Q95.69-8.22 94.91-8.22ZM103.51-10.57L105.15-3.92L106.82-10.57L110.28-10.57L106.84 0L103.48 0L100.03-10.57L103.51-10.57Z"></path></g></g></svg>